<?xml version="1.0" encoding="UTF-8" standalone="no"?>
<svg
   width="5.1590571mm"
   height="4.8950524mm"
   viewBox="0 0 5.1590571 4.8950524"
   version="1.1"
   id="svg8"
   inkscape:version="1.1.1 (3bf5ae0d25, 2021-09-20)"
   sodipodi:docname="answer2.svg"
   xmlns:inkscape="http://www.inkscape.org/namespaces/inkscape"
   xmlns:sodipodi="http://sodipodi.sourceforge.net/DTD/sodipodi-0.dtd"
   xmlns="http://www.w3.org/2000/svg"
   xmlns:svg="http://www.w3.org/2000/svg"
   xmlns:rdf="http://www.w3.org/1999/02/22-rdf-syntax-ns#"
   xmlns:cc="http://creativecommons.org/ns#"
   xmlns:dc="http://purl.org/dc/elements/1.1/">
  <defs
     id="defs2" />
  <sodipodi:namedview
     id="base"
     pagecolor="#e1e1e1"
     bordercolor="#929292"
     borderopacity="1"
     inkscape:pageopacity="0"
     inkscape:pageshadow="2"
     inkscape:zoom="15.839192"
     inkscape:cx="7.7655477"
     inkscape:cy="19.98208"
     inkscape:document-units="mm"
     inkscape:current-layer="layer1"
     inkscape:document-rotation="0"
     showgrid="false"
     inkscape:pagecheckerboard="false"
     showborder="true"
     borderlayer="false"
     inkscape:showpageshadow="false"
     fit-margin-top="0"
     fit-margin-left="0"
     fit-margin-right="0"
     fit-margin-bottom="0"
     inkscape:window-width="1920"
     inkscape:window-height="1017"
     inkscape:window-x="-8"
     inkscape:window-y="-8"
     inkscape:window-maximized="1" />
  <metadata
     id="metadata5">
    <rdf:RDF>
      <cc:Work
         rdf:about="">
        <dc:format>image/svg+xml</dc:format>
        <dc:type
           rdf:resource="http://purl.org/dc/dcmitype/StillImage" />
      </cc:Work>
    </rdf:RDF>
  </metadata>
  <g
     inkscape:label="Layer 1"
     inkscape:groupmode="layer"
     id="layer1"
     transform="translate(-278.63474,-88.266759)">
    <path
       style="color:#000000;fill:none;fill-opacity:1;stroke:#737380;stroke-width:0.385677;stroke-linecap:round;stroke-linejoin:round;stroke-miterlimit:4;stroke-dasharray:none;stroke-opacity:1"
       d="m 281.39296,88.459668 c -0.19525,-0.0014 -0.39505,0.0181 -0.59558,0.06032 -1.28339,0.270181 -2.16503,1.379967 -1.93222,2.501448 0.10137,0.488329 0.4118,0.879728 0.81813,1.154327 -0.0642,0.0541 -0.1794,0.128945 -0.29691,0.201646 -0.11993,0.0742 -0.23894,0.144743 -0.3249,0.212539 -0.043,0.0339 -0.0842,0.05203 -0.11398,0.139014 -0.0149,0.04349 -0.005,0.128443 0.0362,0.171829 0.0414,0.04339 0.0802,0.05062 0.11249,0.05665 0.13277,0.02478 0.29431,0.0019 0.51865,-0.02983 0.22434,-0.03177 0.49336,-0.08007 0.76296,-0.132342 0.53922,-0.104555 1.08266,-0.22557 1.25296,-0.261419 1.2834,-0.270181 2.16545,-1.379966 1.93263,-2.501448 -0.17461,-0.841111 -0.92097,-1.423424 -1.82474,-1.547952 -0.11297,-0.01557 -0.22856,-0.02392 -0.34572,-0.02477 z"
       id="path120410"
       inkscape:export-filename="C:\Users\Navegantes\Downloads\images\answer2.svg"
       inkscape:export-xdpi="196.2953"
       inkscape:export-ydpi="196.2953" />
  </g>
</svg>
