<?xml version="1.0" encoding="UTF-8" standalone="no"?>
<svg
   width="39.6875mm"
   height="39.6875mm"
   viewBox="0 0 39.6875 39.6875"
   version="1.1"
   id="svg8"
   inkscape:version="1.1.1 (3bf5ae0d25, 2021-09-20)"
   sodipodi:docname="empty-questions2.svg"
   xmlns:inkscape="http://www.inkscape.org/namespaces/inkscape"
   xmlns:sodipodi="http://sodipodi.sourceforge.net/DTD/sodipodi-0.dtd"
   xmlns="http://www.w3.org/2000/svg"
   xmlns:svg="http://www.w3.org/2000/svg"
   xmlns:rdf="http://www.w3.org/1999/02/22-rdf-syntax-ns#"
   xmlns:cc="http://creativecommons.org/ns#"
   xmlns:dc="http://purl.org/dc/elements/1.1/">
  <defs
     id="defs2">
    <linearGradient
       id="paint0_linear"
       x1="33.617599"
       y1="97.776299"
       x2="144.84"
       y2="178.888"
       gradientUnits="userSpaceOnUse"
       gradientTransform="matrix(0.26458333,0,0,0.26458333,122.63491,38.878482)">
      <stop
         stop-color="white"
         id="stop993" />
      <stop
         offset="1"
         stop-color="white"
         stop-opacity="0"
         id="stop995" />
    </linearGradient>
    <linearGradient
       id="paint1_linear"
       x1="90.287903"
       y1="19.8906"
       x2="201.50999"
       y2="101.002"
       gradientUnits="userSpaceOnUse"
       gradientTransform="matrix(0.26458333,0,0,0.26458333,122.63491,38.878482)">
      <stop
         stop-color="white"
         id="stop998" />
      <stop
         offset="1"
         stop-color="white"
         stop-opacity="0"
         id="stop1000" />
    </linearGradient>
    <linearGradient
       id="paint2_linear"
       x1="16.023001"
       y1="83.488899"
       x2="127.245"
       y2="164.601"
       gradientUnits="userSpaceOnUse"
       gradientTransform="matrix(0.26458333,0,0,0.26458333,122.63491,38.878482)">
      <stop
         stop-color="white"
         id="stop1003" />
      <stop
         offset="1"
         stop-color="white"
         stop-opacity="0"
         id="stop1005" />
    </linearGradient>
    <linearGradient
       id="paint3_linear"
       x1="72.693298"
       y1="5.6027598"
       x2="183.91499"
       y2="86.714401"
       gradientUnits="userSpaceOnUse"
       gradientTransform="matrix(0.26458333,0,0,0.26458333,122.63491,38.878482)">
      <stop
         stop-color="white"
         id="stop1008" />
      <stop
         offset="1"
         stop-color="white"
         stop-opacity="0"
         id="stop1010" />
    </linearGradient>
    <linearGradient
       id="paint4_linear"
       x1="69.2705"
       y1="226.769"
       x2="86.727097"
       y2="257.005"
       gradientUnits="userSpaceOnUse"
       gradientTransform="matrix(0.26458333,0,0,0.26458333,122.63491,38.878482)">
      <stop
         stop-color="white"
         id="stop1013" />
      <stop
         offset="1"
         stop-color="white"
         stop-opacity="0"
         id="stop1015" />
    </linearGradient>
    <linearGradient
       id="paint5_linear"
       x1="226.423"
       y1="180.183"
       x2="243.88"
       y2="210.41901"
       gradientUnits="userSpaceOnUse"
       gradientTransform="matrix(0.26458333,0,0,0.26458333,122.63491,38.878482)">
      <stop
         stop-color="white"
         id="stop1018" />
      <stop
         offset="1"
         stop-color="white"
         stop-opacity="0"
         id="stop1020" />
    </linearGradient>
    <linearGradient
       id="paint6_linear"
       x1="83.660698"
       y1="244.547"
       x2="64.699303"
       y2="398.29901"
       gradientUnits="userSpaceOnUse"
       gradientTransform="matrix(0.26458333,0,0,0.26458333,122.63491,38.878482)">
      <stop
         stop-color="white"
         id="stop1023" />
      <stop
         offset="1"
         stop-color="white"
         stop-opacity="0"
         id="stop1025" />
    </linearGradient>
    <linearGradient
       id="paint7_linear"
       x1="198.38699"
       y1="233.403"
       x2="274.09299"
       y2="292.664"
       gradientUnits="userSpaceOnUse"
       gradientTransform="matrix(0.26458333,0,0,0.26458333,122.63491,38.878482)">
      <stop
         stop-color="white"
         id="stop1028" />
      <stop
         offset="1"
         stop-color="white"
         stop-opacity="0"
         id="stop1030" />
    </linearGradient>
    <linearGradient
       id="paint8_linear"
       x1="242.88901"
       y1="328.56201"
       x2="265.686"
       y2="346.54901"
       gradientUnits="userSpaceOnUse"
       gradientTransform="matrix(0.26458333,0,0,0.26458333,122.63491,38.878482)">
      <stop
         stop-color="white"
         id="stop1033" />
      <stop
         offset="1"
         stop-color="white"
         stop-opacity="0"
         id="stop1035" />
    </linearGradient>
    <linearGradient
       id="paint9_linear"
       x1="54.215099"
       y1="165.45599"
       x2="76.297997"
       y2="177.763"
       gradientUnits="userSpaceOnUse"
       gradientTransform="matrix(0.26458333,0,0,0.26458333,122.63491,38.878482)">
      <stop
         stop-color="white"
         id="stop1038" />
      <stop
         offset="1"
         stop-color="white"
         stop-opacity="0"
         id="stop1040" />
    </linearGradient>
  </defs>
  <sodipodi:namedview
     id="base"
     pagecolor="#e1e1e1"
     bordercolor="#929292"
     borderopacity="1"
     inkscape:pageopacity="0"
     inkscape:pageshadow="2"
     inkscape:zoom="0.98994949"
     inkscape:cx="165.66502"
     inkscape:cy="106.57109"
     inkscape:document-units="mm"
     inkscape:current-layer="layer1"
     inkscape:document-rotation="0"
     showgrid="false"
     inkscape:pagecheckerboard="false"
     showborder="true"
     borderlayer="false"
     inkscape:showpageshadow="false"
     inkscape:window-width="1920"
     inkscape:window-height="1017"
     inkscape:window-x="-8"
     inkscape:window-y="-8"
     inkscape:window-maximized="1"
     fit-margin-top="0"
     fit-margin-left="0"
     fit-margin-right="0"
     fit-margin-bottom="0" />
  <metadata
     id="metadata5">
    <rdf:RDF>
      <cc:Work
         rdf:about="">
        <dc:format>image/svg+xml</dc:format>
        <dc:type
           rdf:resource="http://purl.org/dc/dcmitype/StillImage" />
      </cc:Work>
    </rdf:RDF>
  </metadata>
  <g
     inkscape:label="Layer 1"
     inkscape:groupmode="layer"
     id="layer1"
     transform="translate(-64.255951,-49.89286)">
    <g
       id="g2889">
      <path
         id="circle875-6"
         style="opacity:0.1;fill:#835afd;stroke-width:0.264583"
         d="M 103.94345,69.73661 A 19.84375,19.84375 0 0 1 84.099701,89.58036 19.84375,19.84375 0 0 1 64.255951,69.73661 19.84375,19.84375 0 0 1 84.099701,49.89286 19.84375,19.84375 0 0 1 103.94345,69.73661 Z" />
      <path
         style="color:#000000;fill:#067b96;fill-opacity:1;stroke:none;stroke-width:1.28716;stroke-linecap:round;stroke-linejoin:round;stroke-miterlimit:4;stroke-dasharray:none;stroke-opacity:1"
         d="m 76.072066,56.115977 c 0.651789,-0.0047 1.318726,0.06037 1.988126,0.20118 4.284123,0.901109 7.227134,4.602473 6.449995,8.342841 -0.338395,1.628678 -1.37466,2.934068 -2.731015,3.849918 0.214441,0.18043 0.598862,0.43006 0.991125,0.67253 0.40034,0.24747 0.797606,0.48275 1.084551,0.70886 0.143439,0.11307 0.280969,0.17353 0.380475,0.46364 0.04978,0.14505 0.01736,0.42838 -0.12094,0.57309 -0.138165,0.14471 -0.267851,0.16882 -0.375511,0.18894 -0.443199,0.0827 -0.982449,0.006 -1.731319,-0.0995 -0.748873,-0.10596 -1.646892,-0.26705 -2.546863,-0.44138 -1.79995,-0.34872 -3.614025,-0.75232 -4.182508,-0.87189 -4.284132,-0.90111 -7.228514,-4.602469 -6.451351,-8.342841 0.582859,-2.805277 3.074297,-4.747411 6.091184,-5.162737 0.377118,-0.05193 0.762981,-0.07977 1.154065,-0.08261 z"
         id="path2273-5"
         inkscape:export-filename="C:\Users\Navegantes\Downloads\images\answer2.svg"
         inkscape:export-xdpi="196.2953"
         inkscape:export-ydpi="196.2953" />
      <path
         id="circle883-3"
         style="fill:#fefefe;stroke-width:0.264583"
         d="m 74.5747,62.951946 a 0.92604166,0.92604166 0 0 1 -0.926041,0.926042 0.92604166,0.92604166 0 0 1 -0.926042,-0.926042 0.92604166,0.92604166 0 0 1 0.926042,-0.926041 0.92604166,0.92604166 0 0 1 0.926041,0.926041 z" />
      <path
         id="circle885-3"
         style="fill:#fefefe;stroke-width:0.264583"
         d="m 78.014283,62.951946 a 0.92604166,0.92604166 0 0 1 -0.926041,0.926042 0.92604166,0.92604166 0 0 1 -0.926042,-0.926042 0.92604166,0.92604166 0 0 1 0.926042,-0.926041 0.92604166,0.92604166 0 0 1 0.926041,0.926041 z" />
      <path
         id="circle887-6"
         style="fill:#fefefe;stroke-width:0.264583"
         d="m 81.453874,62.951946 a 0.92604166,0.92604166 0 0 1 -0.926042,0.926042 0.92604166,0.92604166 0 0 1 -0.926042,-0.926042 0.92604166,0.92604166 0 0 1 0.926042,-0.926041 0.92604166,0.92604166 0 0 1 0.926042,0.926041 z" />
      <path
         style="color:#000000;fill:#60e951;fill-opacity:1;stroke:none;stroke-width:1.28717;stroke-linecap:round;stroke-linejoin:round;stroke-miterlimit:4;stroke-dasharray:none;stroke-opacity:1"
         d="m 94.490583,63.7133 c -0.651795,-0.0047 -1.318738,0.06037 -1.988142,0.20118 -4.28416,0.901109 -7.227195,4.602476 -6.450048,8.342836 0.338397,1.62868 1.374671,2.93408 2.731037,3.84992 -0.214443,0.18043 -0.598867,0.43006 -0.991133,0.67253 -0.400343,0.24747 -0.797613,0.48275 -1.08456,0.70886 -0.14344,0.11307 -0.280971,0.17353 -0.380478,0.46364 -0.04978,0.14505 -0.01736,0.42839 0.120941,0.57309 0.138166,0.14471 0.267854,0.16882 0.375515,0.18894 0.443202,0.0827 0.982456,0.006 1.731332,-0.0995 0.74888,-0.10597 1.646905,-0.26706 2.546884,-0.44139 1.799965,-0.34872 3.614055,-0.75232 4.182542,-0.87189 4.284167,-0.90111 7.228577,-4.60247 6.451407,-8.34284 -0.58287,-2.805275 -3.074325,-4.747409 -6.091237,-5.162735 -0.377121,-0.05193 -0.762987,-0.07977 -1.154074,-0.08261 z"
         id="path2367"
         inkscape:export-filename="C:\Users\Navegantes\Downloads\images\answer2.svg"
         inkscape:export-xdpi="196.2953"
         inkscape:export-ydpi="196.2953" />
      <path
         style="color:#000000;fill:#6db665;fill-opacity:1;stroke:none;stroke-width:0.659731;stroke-linecap:round;stroke-linejoin:round;stroke-miterlimit:4;stroke-dasharray:none;stroke-opacity:1"
         d="m 78.012983,76.729466 c 0.335543,-0.002 0.678882,0.0308 1.023488,0.10267 2.20547,0.45983 3.720533,2.34865 3.320461,4.25736 -0.174205,0.83112 -0.707676,1.49727 -1.405927,1.96462 0.110394,0.0921 0.308294,0.21946 0.510231,0.3432 0.206095,0.12628 0.410608,0.24634 0.558326,0.36173 0.07384,0.0577 0.144644,0.0885 0.19587,0.2366 0.02563,0.074 0.0089,0.2186 -0.06226,0.29244 -0.07113,0.0738 -0.13789,0.0862 -0.193313,0.0964 -0.22816,0.0422 -0.505765,0.003 -0.891284,-0.0508 -0.38552,-0.0541 -0.84782,-0.13627 -1.311126,-0.22524 -0.926615,-0.17795 -1.860501,-0.38391 -2.153156,-0.44492 -2.205473,-0.45984 -3.721243,-2.34865 -3.321159,-4.25737 0.300056,-1.43154 1.58265,-2.42261 3.135744,-2.63455 0.19414,-0.0265 0.392783,-0.0407 0.594113,-0.0422 z"
         id="path2406"
         inkscape:export-filename="C:\Users\Navegantes\Downloads\images\answer2.svg"
         inkscape:export-xdpi="196.2953"
         inkscape:export-ydpi="196.2953" />
    </g>
  </g>
</svg>
